<svg width="40" height="40" viewBox="0 0 40 40" fill="none" xmlns="http://www.w3.org/2000/svg">
<g clip-path="url(#clip0_11482_74546)">
<path d="M34.8038 8.51032L34.8035 8.50999C34.0009 7.71488 33.0474 7.08362 31.9972 6.65276M34.8038 8.51032L31.9972 6.65276M34.8038 8.51032C35.6068 9.30503 36.2433 10.2481 36.6773 11.2853C37.1114 12.3225 37.3346 13.4339 37.3346 14.5561C37.3346 15.6782 37.1114 16.7896 36.6773 17.8268C36.2433 18.864 35.6068 19.8071 34.8038 20.6018L34.8037 20.602L32.9443 22.4431L20.0008 35.2594M34.8038 8.51032L20.0008 35.2594M31.9972 6.65276C30.947 6.22189 29.8211 6 28.6837 6C27.5464 6 26.4204 6.22189 25.3703 6.65276C24.3201 7.08362 23.3666 7.71488 22.564 8.50999L22.5638 8.51015L20.7044 10.3513C20.3147 10.7371 19.6869 10.7371 19.2972 10.3513L17.4379 8.51015C15.8164 6.90465 13.6152 6.00093 11.3179 6.00093C9.02064 6.00093 6.81942 6.90465 5.19798 8.51015C3.57688 10.1153 2.66797 12.2903 2.66797 14.5561C2.66797 16.8218 3.57688 18.9968 5.19798 20.602L7.05735 22.4431L20.0008 35.2594M31.9972 6.65276L20.0008 35.2594" stroke="#060F42" stroke-width="2" stroke-linecap="round" stroke-linejoin="round"/>
</g>
<defs>
<clipPath id="clip0_11482_74546">
<rect width="40" height="40" fill="white"/>
</clipPath>
</defs>
</svg>
